{
	"asset":{
		"generator":"Khronos glTF Blender I/O v4.2.70",
		"version":"2.0"
	},
	"scene":0,
	"scenes":[
		{
			"name":"Scene",
			"nodes":[
				38,
				39
			]
		}
	],
	"nodes":[
		{
			"name":"Foot.L",
			"rotation":[
				5.854426035512006e-06,
				0.7029520273208618,
				0.711237370967865,
				5.835160663991701e-06
			],
			"scale":[
				1,
				0.9999998211860657,
				0.9999998807907104
			],
			"translation":[
				0.20781449973583221,
				0.024662867188453674,
				-0.04505542665719986
			]
		},
		{
			"mesh":1,
			"name":"Monk.001_Hair",
			"rotation":[
				-1.5919800588903854e-08,
				0.000275100494036451,
				-1.2369129054334849e-09,
				0.9999999403953552
			],
			"translation":[
				0.0006400730926543474,
				-2.127147674560547,
				0.0031045209616422653
			]
		},
		{
			"mesh":2,
			"name":"Monk.001_Outfit",
			"rotation":[
				-1.5919800588903854e-08,
				0.000275100494036451,
				-1.2369129054334849e-09,
				0.9999999403953552
			],
			"translation":[
				0.0006400730926543474,
				-2.127147674560547,
				0.0031045209616422653
			]
		},
		{
			"mesh":3,
			"name":"Monk.001_Skin",
			"rotation":[
				-1.5919800588903854e-08,
				0.000275100494036451,
				-1.2369129054334849e-09,
				0.9999999403953552
			],
			"translation":[
				0.0006400730926543474,
				-2.127147674560547,
				0.0031045209616422653
			]
		},
		{
			"children":[
				1,
				2,
				3
			],
			"name":"Head",
			"rotation":[
				-7.642778854233256e-09,
				-0.00027547753416001797,
				2.0978819809808202e-12,
				1
			],
			"scale":[
				0.9999999403953552,
				1,
				0.9999999403953552
			],
			"translation":[
				6.441586847261149e-11,
				0.13127493858337402,
				8.358158609667043e-11
			]
		},
		{
			"children":[
				4
			],
			"name":"Neck",
			"rotation":[
				-0.036250170320272446,
				6.827197580605571e-07,
				-2.4897099937248868e-09,
				0.9993427395820618
			],
			"scale":[
				1,
				1,
				0.9999999403953552
			],
			"translation":[
				4.2266856681294485e-11,
				0.4391976594924927,
				-5.6613225218882235e-09
			]
		},
		{
			"name":"Fist2.L",
			"rotation":[
				-0.14578020572662354,
				1.7498399174087353e-08,
				3.413604687807492e-08,
				0.989316999912262
			],
			"translation":[
				-1.1429126089979036e-08,
				0.10797257721424103,
				-6.957323250844638e-08
			]
		},
		{
			"children":[
				6
			],
			"name":"Fist1.L",
			"rotation":[
				-0.06264130026102066,
				-0.018810421228408813,
				-0.0011808385606855154,
				0.9978581666946411
			],
			"scale":[
				1,
				1,
				0.9999999403953552
			],
			"translation":[
				1.6065314412117004e-08,
				0.12674947082996368,
				-4.774192348122597e-07
			]
		},
		{
			"children":[
				7
			],
			"name":"Fist.L",
			"rotation":[
				0.01980031095445156,
				0.01744266413152218,
				-0.008522024378180504,
				0.999615490436554
			],
			"scale":[
				1,
				1.0000001192092896,
				1.0000001192092896
			],
			"translation":[
				9.778887033462524e-09,
				0.4501799941062927,
				-2.1869345800951123e-07
			]
		},
		{
			"name":"Thumb2.L",
			"rotation":[
				-0.07893151044845581,
				-0.2979133725166321,
				0.1416628062725067,
				0.940717339515686
			],
			"scale":[
				1,
				1,
				0.9999999403953552
			],
			"translation":[
				-6.891787052154541e-08,
				0.1048111766576767,
				1.210719347000122e-08
			]
		},
		{
			"children":[
				9
			],
			"name":"Thumb1.L",
			"rotation":[
				-0.17105744779109955,
				0.08374448120594025,
				-0.432979017496109,
				0.8810535669326782
			],
			"scale":[
				1,
				1.0000001192092896,
				1
			],
			"translation":[
				8.381903171539307e-08,
				0.4501799941062927,
				-9.929499356076121e-08
			]
		},
		{
			"children":[
				8,
				10
			],
			"name":"LowerArm.L",
			"rotation":[
				-0.01230976078659296,
				0.032828424125909805,
				-0.019624708220362663,
				0.9991925358772278
			],
			"translation":[
				1.4901161193847656e-08,
				0.39223378896713257,
				3.4691765904426575e-08
			]
		},
		{
			"children":[
				11
			],
			"name":"UpperArm.L",
			"rotation":[
				-0.27525004744529724,
				-0.6747888326644897,
				-0.22148947417736053,
				0.6479505300521851
			],
			"scale":[
				0.9999999403953552,
				0.9999998211860657,
				0.9999999403953552
			],
			"translation":[
				1.996168492723882e-07,
				0.25820598006248474,
				-8.089386938081589e-10
			]
		},
		{
			"children":[
				12
			],
			"name":"Shoulder.L",
			"rotation":[
				-0.03302106261253357,
				-0.014953509904444218,
				-0.41228097677230835,
				0.91033536195755
			],
			"scale":[
				0.9999999403953552,
				1,
				0.9999999403953552
			],
			"translation":[
				0.12610280513763428,
				0.14141391217708588,
				0.012646056711673737
			]
		},
		{
			"name":"Fist2.R",
			"rotation":[
				-0.1457795798778534,
				-1.1693864543360633e-08,
				-4.059663183397788e-08,
				0.9893171191215515
			],
			"scale":[
				1,
				1,
				0.9999998807907104
			],
			"translation":[
				1.3181118418970073e-09,
				0.1079721748828888,
				-1.7190264145483525e-07
			]
		},
		{
			"name":"Weapon.R",
			"rotation":[
				-1.8626471476324014e-09,
				-3.911560142455528e-08,
				8.881784197001252e-16,
				1
			],
			"scale":[
				1,
				0.9999999403953552,
				0.9999999403953552
			],
			"translation":[
				0.02097919024527073,
				-0.018025429919362068,
				-1.9072373902417894e-07
			]
		},
		{
			"children":[
				14,
				15
			],
			"name":"Fist1.R",
			"rotation":[
				-0.06264133751392365,
				0.018810424953699112,
				0.0011808068957179785,
				0.9978581666946411
			],
			"translation":[
				-1.6880221664905548e-08,
				0.12674959003925323,
				-3.3853575587272644e-07
			]
		},
		{
			"children":[
				16
			],
			"name":"Fist.R",
			"rotation":[
				0.01980031654238701,
				-0.017442652955651283,
				0.008522032760083675,
				0.999615490436554
			],
			"scale":[
				1,
				1.0000001192092896,
				1.0000001192092896
			],
			"translation":[
				3.259629011154175e-09,
				0.45017966628074646,
				1.360021997243166e-07
			]
		},
		{
			"name":"Thumb2.R",
			"rotation":[
				-0.07893164455890656,
				0.29791370034217834,
				-0.14166274666786194,
				0.9407172799110413
			],
			"scale":[
				0.9999999403953552,
				0.9999998211860657,
				0.9999999403953552
			],
			"translation":[
				3.166496753692627e-08,
				0.10481081902980804,
				2.915039658546448e-07
			]
		},
		{
			"children":[
				18
			],
			"name":"Thumb1.R",
			"rotation":[
				-0.17105765640735626,
				-0.08374471217393875,
				0.4329790771007538,
				0.8810535073280334
			],
			"scale":[
				1,
				1,
				1.0000001192092896
			],
			"translation":[
				1.862645149230957e-09,
				0.45017969608306885,
				-4.6004424802958965e-07
			]
		},
		{
			"children":[
				17,
				19
			],
			"name":"LowerArm.R",
			"rotation":[
				-0.01230973657220602,
				-0.03282846510410309,
				0.019624678418040276,
				0.9991925358772278
			],
			"scale":[
				0.9999999403953552,
				1,
				1
			],
			"translation":[
				0,
				0.39223355054855347,
				-1.6042031347751617e-07
			]
		},
		{
			"children":[
				20
			],
			"name":"UpperArm.R",
			"rotation":[
				-0.2752499580383301,
				0.6747888922691345,
				0.22148948907852173,
				0.6479504108428955
			],
			"scale":[
				1.0000001192092896,
				1.0000001192092896,
				1
			],
			"translation":[
				-6.531460172709558e-08,
				0.2582060396671295,
				-8.256506589532364e-10
			]
		},
		{
			"children":[
				21
			],
			"name":"Shoulder.R",
			"rotation":[
				-0.03302080184221268,
				0.014954080805182457,
				0.4122810363769531,
				0.91033536195755
			],
			"scale":[
				1,
				1,
				0.9999999403953552
			],
			"translation":[
				-0.12482606619596481,
				0.14141391217708588,
				0.012646217830479145
			]
		},
		{
			"children":[
				5,
				13,
				22
			],
			"name":"Torso",
			"rotation":[
				-0.082321897149086,
				-8.409328984271269e-07,
				-1.887726419624869e-08,
				0.9966058135032654
			],
			"scale":[
				1,
				1,
				0.9999999403953552
			],
			"translation":[
				-2.4343194127141032e-11,
				0.32525259256362915,
				3.040243168328516e-09
			]
		},
		{
			"children":[
				23
			],
			"name":"Abdomen",
			"rotation":[
				0.23118813335895538,
				3.152625254188024e-07,
				1.7295823795393517e-07,
				0.9729090332984924
			],
			"translation":[
				5.919886802985275e-11,
				0.2217743843793869,
				1.4629899069973362e-08
			]
		},
		{
			"children":[
				24
			],
			"name":"Hips",
			"rotation":[
				-0.11437448114156723,
				-1.4437276263379317e-07,
				-6.501528559965664e-08,
				0.9934377074241638
			],
			"translation":[
				-0.0014798843767493963,
				-0.11307907104492188,
				-0.11569906026124954
			]
		},
		{
			"name":"LowerLeg.L",
			"rotation":[
				0.08880452066659927,
				0.0011890372261404991,
				0.008002587594091892,
				0.9960162043571472
			],
			"scale":[
				1,
				1.0000001192092896,
				1.0000001192092896
			],
			"translation":[
				1.6043486539274454e-08,
				0.552046537399292,
				7.261405698955059e-09
			]
		},
		{
			"children":[
				26
			],
			"name":"UpperLeg.L",
			"rotation":[
				0.9990785121917725,
				0.008049377240240574,
				-0.000814462429843843,
				0.04215051978826523
			],
			"scale":[
				1.0000003576278687,
				1,
				1.0000128746032715
			],
			"translation":[
				0.19541878998279572,
				0.018798112869262695,
				-0.0914238840341568
			]
		},
		{
			"name":"LowerLeg.R",
			"rotation":[
				0.08880438655614853,
				-0.0011889869347214699,
				-0.008002594113349915,
				0.9960162043571472
			],
			"scale":[
				0.9999999403953552,
				1.0000001192092896,
				1
			],
			"translation":[
				-4.197136149741709e-08,
				0.552046537399292,
				-6.363552529364824e-08
			]
		},
		{
			"children":[
				28
			],
			"name":"UpperLeg.R",
			"rotation":[
				0.9990785121917725,
				-0.008049402385950089,
				0.0008151931688189507,
				0.04215051606297493
			],
			"scale":[
				1.0000003576278687,
				1,
				1.000012993812561
			],
			"translation":[
				-0.20403647422790527,
				0.018798112869262695,
				-0.09142418205738068
			]
		},
		{
			"children":[
				25,
				27,
				29
			],
			"name":"Body",
			"rotation":[
				1.0097419586828951e-28,
				1.1878111649821221e-07,
				1.399439245862075e-27,
				1
			],
			"translation":[
				0.002153033157810569,
				1.1412163972854614,
				0.054810818284749985
			]
		},
		{
			"name":"PoleTarget.L",
			"rotation":[
				-1.0097419586828951e-28,
				1.185959206395637e-07,
				1.398650384956854e-27,
				1
			],
			"translation":[
				0.20438390970230103,
				0.7245326042175293,
				0.9631468653678894
			]
		},
		{
			"name":"Foot.R",
			"rotation":[
				6.095190201449441e-06,
				-0.7029520273208618,
				-0.711237370967865,
				5.583765414485242e-06
			],
			"scale":[
				1,
				0.9999998211860657,
				0.9999998807907104
			],
			"translation":[
				-0.21212609112262726,
				0.024662867188453674,
				-0.04505562409758568
			]
		},
		{
			"name":"PoleTarget.R",
			"rotation":[
				2.0194839173657902e-28,
				-5.966599019302521e-07,
				-1.398650384956854e-27,
				1
			],
			"translation":[
				-0.20869645476341248,
				0.7245324850082397,
				0.9631465077400208
			]
		},
		{
			"children":[
				0,
				30,
				31,
				32,
				33
			],
			"name":"Root",
			"rotation":[
				-8.55673043531624e-09,
				2.390320048561989e-07,
				-4.090664727118181e-15,
				1
			],
			"translation":[
				-0.0013114692410454154,
				-0.0024153697304427624,
				-0.00011468418961158022
			]
		},
		{
			"mesh":0,
			"name":"Monk_Hair",
			"skin":0
		},
		{
			"mesh":4,
			"name":"Monk_Outfit",
			"skin":0
		},
		{
			"mesh":5,
			"name":"Monk_Skin",
			"skin":0
		},
		{
			"children":[
				35,
				36,
				37,
				34
			],
			"name":"CharacterArmature"
		},
		{
			"mesh":6,
			"name":"Icosphere_Outfit"
		}
	],
	"materials":[
		{
			"alphaMode":"BLEND",
			"doubleSided":true,
			"name":"Hair",
			"pbrMetallicRoughness":{
				"baseColorTexture":{
					"index":0
				},
				"metallicFactor":0
			}
		},
		{
			"alphaMode":"BLEND",
			"doubleSided":true,
			"name":"Monk_Outfit_Texture",
			"pbrMetallicRoughness":{
				"baseColorTexture":{
					"index":1
				},
				"metallicFactor":0
			}
		},
		{
			"alphaMode":"BLEND",
			"doubleSided":true,
			"name":"Skin",
			"pbrMetallicRoughness":{
				"baseColorTexture":{
					"index":2
				},
				"metallicFactor":0
			}
		}
	],
	"meshes":[
		{
			"name":"_ncl1_29.003",
			"primitives":[
				{
					"attributes":{
						"POSITION":0,
						"NORMAL":1,
						"TEXCOORD_0":2,
						"JOINTS_0":3,
						"WEIGHTS_0":4
					},
					"indices":5,
					"material":0
				}
			]
		},
		{
			"name":"_ncl1_29.006",
			"primitives":[
				{
					"attributes":{
						"POSITION":7,
						"NORMAL":8,
						"TEXCOORD_0":9
					},
					"indices":10,
					"material":0
				}
			]
		},
		{
			"name":"_ncl1_29.008",
			"primitives":[
				{
					"attributes":{
						"POSITION":11,
						"NORMAL":12,
						"TEXCOORD_0":13
					},
					"indices":10,
					"material":1
				}
			]
		},
		{
			"name":"_ncl1_29.002",
			"primitives":[
				{
					"attributes":{
						"POSITION":14,
						"NORMAL":15,
						"TEXCOORD_0":16
					},
					"indices":10,
					"material":2
				}
			]
		},
		{
			"name":"_ncl1_29.007",
			"primitives":[
				{
					"attributes":{
						"POSITION":17,
						"NORMAL":18,
						"TEXCOORD_0":19,
						"JOINTS_0":20,
						"WEIGHTS_0":21
					},
					"indices":5,
					"material":1
				}
			]
		},
		{
			"name":"_ncl1_29.001",
			"primitives":[
				{
					"attributes":{
						"POSITION":22,
						"NORMAL":23,
						"TEXCOORD_0":24,
						"JOINTS_0":25,
						"WEIGHTS_0":26
					},
					"indices":5,
					"material":2
				}
			]
		},
		{
			"name":"Icosphere.001",
			"primitives":[
				{
					"attributes":{
						"POSITION":27,
						"NORMAL":28,
						"TEXCOORD_0":29
					},
					"indices":30,
					"material":1
				}
			]
		}
	],
	"textures":[
		{
			"sampler":0,
			"source":0
		},
		{
			"sampler":0,
			"source":1
		},
		{
			"sampler":0,
			"source":2
		}
	],
	"images":[
		{
			"mimeType":"image/png",
			"name":"Monk_Tintable_hair",
			"uri":"Monk_Tintable_hair.png"
		},
		{
			"mimeType":"image/png",
			"name":"Monk_Tintable_outfit",
			"uri":"Monk_Tintable_outfit.png"
		},
		{
			"mimeType":"image/png",
			"name":"Monk_Tintable_skin",
			"uri":"Monk_Tintable_skin.png"
		}
	],
	"skins":[
		{
			"inverseBindMatrices":6,
			"joints":[
				34,
				0,
				30,
				25,
				24,
				23,
				5,
				4,
				13,
				12,
				11,
				8,
				7,
				6,
				10,
				9,
				22,
				21,
				20,
				17,
				16,
				14,
				15,
				19,
				18,
				27,
				26,
				29,
				28,
				31,
				32,
				33
			],
			"name":"CharacterArmature"
		}
	],
	"accessors":[
		{
			"bufferView":0,
			"componentType":5126,
			"count":2590,
			"max":[
				1.6377949714660645,
				2.9481563568115234,
				0.3341257572174072
			],
			"min":[
				-1.637977957725525,
				0.00042732799192890525,
				-0.47767919301986694
			],
			"type":"VEC3"
		},
		{
			"bufferView":1,
			"componentType":5126,
			"count":2590,
			"type":"VEC3"
		},
		{
			"bufferView":2,
			"componentType":5126,
			"count":2590,
			"type":"VEC2"
		},
		{
			"bufferView":3,
			"componentType":5121,
			"count":2590,
			"type":"VEC4"
		},
		{
			"bufferView":4,
			"componentType":5126,
			"count":2590,
			"type":"VEC4"
		},
		{
			"bufferView":5,
			"componentType":5123,
			"count":4902,
			"type":"SCALAR"
		},
		{
			"bufferView":6,
			"componentType":5126,
			"count":32,
			"type":"MAT4"
		},
		{
			"bufferView":7,
			"componentType":5126,
			"count":4624,
			"max":[
				0.36353009939193726,
				2.6910934448242188,
				0.3599378764629364
			],
			"min":[
				-0.3611738085746765,
				1.7900034189224243,
				-0.3901795744895935
			],
			"type":"VEC3"
		},
		{
			"bufferView":8,
			"componentType":5126,
			"count":4624,
			"type":"VEC3"
		},
		{
			"bufferView":9,
			"componentType":5126,
			"count":4624,
			"type":"VEC2"
		},
		{
			"bufferView":10,
			"componentType":5123,
			"count":15240,
			"type":"SCALAR"
		},
		{
			"bufferView":11,
			"componentType":5126,
			"count":4624,
			"max":[
				0.36353009939193726,
				2.6910934448242188,
				0.3599378764629364
			],
			"min":[
				-0.3611738085746765,
				1.7900034189224243,
				-0.3901795744895935
			],
			"type":"VEC3"
		},
		{
			"bufferView":12,
			"componentType":5126,
			"count":4624,
			"type":"VEC3"
		},
		{
			"bufferView":13,
			"componentType":5126,
			"count":4624,
			"type":"VEC2"
		},
		{
			"bufferView":14,
			"componentType":5126,
			"count":4624,
			"max":[
				0.36353009939193726,
				2.6910934448242188,
				0.3599378764629364
			],
			"min":[
				-0.3611738085746765,
				1.7900034189224243,
				-0.3901795744895935
			],
			"type":"VEC3"
		},
		{
			"bufferView":15,
			"componentType":5126,
			"count":4624,
			"type":"VEC3"
		},
		{
			"bufferView":16,
			"componentType":5126,
			"count":4624,
			"type":"VEC2"
		},
		{
			"bufferView":17,
			"componentType":5126,
			"count":2590,
			"max":[
				1.6377949714660645,
				2.9481563568115234,
				0.3341257572174072
			],
			"min":[
				-1.637977957725525,
				0.00042732799192890525,
				-0.47767919301986694
			],
			"type":"VEC3"
		},
		{
			"bufferView":18,
			"componentType":5126,
			"count":2590,
			"type":"VEC3"
		},
		{
			"bufferView":19,
			"componentType":5126,
			"count":2590,
			"type":"VEC2"
		},
		{
			"bufferView":20,
			"componentType":5121,
			"count":2590,
			"type":"VEC4"
		},
		{
			"bufferView":21,
			"componentType":5126,
			"count":2590,
			"type":"VEC4"
		},
		{
			"bufferView":22,
			"componentType":5126,
			"count":2590,
			"max":[
				1.6377949714660645,
				2.9481563568115234,
				0.3341257572174072
			],
			"min":[
				-1.637977957725525,
				0.00042732799192890525,
				-0.47767919301986694
			],
			"type":"VEC3"
		},
		{
			"bufferView":23,
			"componentType":5126,
			"count":2590,
			"type":"VEC3"
		},
		{
			"bufferView":24,
			"componentType":5126,
			"count":2590,
			"type":"VEC2"
		},
		{
			"bufferView":25,
			"componentType":5121,
			"count":2590,
			"type":"VEC4"
		},
		{
			"bufferView":26,
			"componentType":5126,
			"count":2590,
			"type":"VEC4"
		},
		{
			"bufferView":27,
			"componentType":5126,
			"count":240,
			"max":[
				0.9510578513145447,
				1,
				0.9999999403953552
			],
			"min":[
				-0.9510578513145447,
				-1,
				-0.9999999403953552
			],
			"type":"VEC3"
		},
		{
			"bufferView":28,
			"componentType":5126,
			"count":240,
			"type":"VEC3"
		},
		{
			"bufferView":29,
			"componentType":5126,
			"count":240,
			"type":"VEC2"
		},
		{
			"bufferView":30,
			"componentType":5123,
			"count":240,
			"type":"SCALAR"
		}
	],
	"bufferViews":[
		{
			"buffer":0,
			"byteLength":31080,
			"byteOffset":0,
			"target":34962
		},
		{
			"buffer":0,
			"byteLength":31080,
			"byteOffset":31080,
			"target":34962
		},
		{
			"buffer":0,
			"byteLength":20720,
			"byteOffset":62160,
			"target":34962
		},
		{
			"buffer":0,
			"byteLength":10360,
			"byteOffset":82880,
			"target":34962
		},
		{
			"buffer":0,
			"byteLength":41440,
			"byteOffset":93240,
			"target":34962
		},
		{
			"buffer":0,
			"byteLength":9804,
			"byteOffset":134680,
			"target":34963
		},
		{
			"buffer":0,
			"byteLength":2048,
			"byteOffset":144484
		},
		{
			"buffer":0,
			"byteLength":55488,
			"byteOffset":146532,
			"target":34962
		},
		{
			"buffer":0,
			"byteLength":55488,
			"byteOffset":202020,
			"target":34962
		},
		{
			"buffer":0,
			"byteLength":36992,
			"byteOffset":257508,
			"target":34962
		},
		{
			"buffer":0,
			"byteLength":30480,
			"byteOffset":294500,
			"target":34963
		},
		{
			"buffer":0,
			"byteLength":55488,
			"byteOffset":324980,
			"target":34962
		},
		{
			"buffer":0,
			"byteLength":55488,
			"byteOffset":380468,
			"target":34962
		},
		{
			"buffer":0,
			"byteLength":36992,
			"byteOffset":435956,
			"target":34962
		},
		{
			"buffer":0,
			"byteLength":55488,
			"byteOffset":472948,
			"target":34962
		},
		{
			"buffer":0,
			"byteLength":55488,
			"byteOffset":528436,
			"target":34962
		},
		{
			"buffer":0,
			"byteLength":36992,
			"byteOffset":583924,
			"target":34962
		},
		{
			"buffer":0,
			"byteLength":31080,
			"byteOffset":620916,
			"target":34962
		},
		{
			"buffer":0,
			"byteLength":31080,
			"byteOffset":651996,
			"target":34962
		},
		{
			"buffer":0,
			"byteLength":20720,
			"byteOffset":683076,
			"target":34962
		},
		{
			"buffer":0,
			"byteLength":10360,
			"byteOffset":703796,
			"target":34962
		},
		{
			"buffer":0,
			"byteLength":41440,
			"byteOffset":714156,
			"target":34962
		},
		{
			"buffer":0,
			"byteLength":31080,
			"byteOffset":755596,
			"target":34962
		},
		{
			"buffer":0,
			"byteLength":31080,
			"byteOffset":786676,
			"target":34962
		},
		{
			"buffer":0,
			"byteLength":20720,
			"byteOffset":817756,
			"target":34962
		},
		{
			"buffer":0,
			"byteLength":10360,
			"byteOffset":838476,
			"target":34962
		},
		{
			"buffer":0,
			"byteLength":41440,
			"byteOffset":848836,
			"target":34962
		},
		{
			"buffer":0,
			"byteLength":2880,
			"byteOffset":890276,
			"target":34962
		},
		{
			"buffer":0,
			"byteLength":2880,
			"byteOffset":893156,
			"target":34962
		},
		{
			"buffer":0,
			"byteLength":1920,
			"byteOffset":896036,
			"target":34962
		},
		{
			"buffer":0,
			"byteLength":480,
			"byteOffset":897956,
			"target":34963
		}
	],
	"samplers":[
		{
			"magFilter":9729,
			"minFilter":9987
		}
	],
	"buffers":[
		{
			"byteLength":898436,
			"uri":"Monk_Tintable.bin"
		}
	]
}
