{
	"asset":{
		"generator":"Khronos glTF Blender I/O v4.2.70",
		"version":"2.0"
	},
	"scene":0,
	"scenes":[
		{
			"name":"Scene",
			"nodes":[
				34
			]
		}
	],
	"nodes":[
		{
			"name":"Head",
			"rotation":[
				3.7252947393540126e-09,
				-0.00027547520585358143,
				-1.0262256539342318e-12,
				1
			],
			"scale":[
				0.9999999403953552,
				1,
				1
			],
			"translation":[
				-2.0843261144820602e-11,
				0.13127493858337402,
				-4.610871129351324e-10
			]
		},
		{
			"children":[
				0
			],
			"name":"Neck",
			"rotation":[
				-0.03625018894672394,
				6.775707106498885e-07,
				-2.5175719287062748e-09,
				0.9993427395820618
			],
			"translation":[
				3.133582282544012e-11,
				0.4391977787017822,
				-9.623144059389688e-09
			]
		},
		{
			"name":"Fist2.L",
			"rotation":[
				-0.1457803100347519,
				2.7200703911489654e-08,
				3.594298192410861e-08,
				0.989316999912262
			],
			"scale":[
				1,
				1,
				0.9999999403953552
			],
			"translation":[
				-1.9923245275776935e-09,
				0.10797244310379028,
				5.2133426464706645e-08
			]
		},
		{
			"children":[
				2
			],
			"name":"Fist1.L",
			"rotation":[
				-0.06264130771160126,
				-0.01881043240427971,
				-0.001180834835395217,
				0.9978581666946411
			],
			"translation":[
				-3.4924596548080444e-09,
				0.12674951553344727,
				-1.2083910405635834e-07
			]
		},
		{
			"children":[
				3
			],
			"name":"Fist.L",
			"rotation":[
				0.019800318405032158,
				0.01744265668094158,
				-0.00852202344685793,
				0.999615490436554
			],
			"scale":[
				1,
				1.0000001192092896,
				1.0000001192092896
			],
			"translation":[
				-2.3283064365386963e-09,
				0.45017990469932556,
				-8.768984116613865e-08
			]
		},
		{
			"name":"Thumb2.L",
			"rotation":[
				-0.07893172651529312,
				-0.2979136109352112,
				0.14166273176670074,
				0.9407172799110413
			],
			"scale":[
				1,
				1.0000001192092896,
				1
			],
			"translation":[
				-5.029141902923584e-08,
				0.10481107980012894,
				-4.470348358154297e-08
			]
		},
		{
			"children":[
				5
			],
			"name":"Thumb1.L",
			"rotation":[
				-0.17105749249458313,
				0.0837446078658104,
				-0.43297889828681946,
				0.881053626537323
			],
			"translation":[
				-2.3283064365386963e-09,
				0.45017990469932556,
				-8.768984116613865e-08
			]
		},
		{
			"children":[
				4,
				6
			],
			"name":"LowerArm.L",
			"rotation":[
				-0.012309764511883259,
				0.0328284427523613,
				-0.01962468959391117,
				0.9991925358772278
			],
			"scale":[
				1.0000001192092896,
				0.9999999403953552,
				1
			],
			"translation":[
				7.450580596923828e-09,
				0.39223363995552063,
				4.6100467443466187e-08
			]
		},
		{
			"children":[
				7
			],
			"name":"UpperArm.L",
			"rotation":[
				-0.27525004744529724,
				-0.6747888922691345,
				-0.22148950397968292,
				0.6479504704475403
			],
			"scale":[
				0.9999999403953552,
				0.9999999403953552,
				1
			],
			"translation":[
				1.0786955328967451e-07,
				0.2582060396671295,
				-9.982841220335104e-10
			]
		},
		{
			"children":[
				8
			],
			"name":"Shoulder.L",
			"rotation":[
				-0.03302105516195297,
				-0.01495351456105709,
				-0.41228097677230835,
				0.91033536195755
			],
			"scale":[
				1,
				1.0000001192092896,
				1
			],
			"translation":[
				0.12610283493995667,
				0.14141403138637543,
				0.012646054849028587
			]
		},
		{
			"name":"Fist2.R",
			"rotation":[
				-0.14578032493591309,
				-2.859180270320394e-08,
				-3.9138420504514215e-08,
				0.989316999912262
			],
			"scale":[
				1,
				0.9999998807907104,
				0.9999998211860657
			],
			"translation":[
				1.7528566376157073e-09,
				0.10797236859798431,
				-3.715684471217173e-08
			]
		},
		{
			"name":"Weapon.R",
			"rotation":[
				1.0244549741855735e-07,
				-5.029141902923584e-08,
				-5.6343818499726694e-15,
				1
			],
			"scale":[
				1,
				0.9999999403953552,
				0.9999999403953552
			],
			"translation":[
				0.020979193970561028,
				-0.01802535355091095,
				-7.81578606279254e-08
			]
		},
		{
			"children":[
				10,
				11
			],
			"name":"Fist1.R",
			"rotation":[
				-0.06264138221740723,
				0.01881043240427971,
				0.0011808376293629408,
				0.9978581666946411
			],
			"translation":[
				4.132743924856186e-09,
				0.12674950063228607,
				-1.1315569281578064e-07
			]
		},
		{
			"children":[
				12
			],
			"name":"Fist.R",
			"rotation":[
				0.019800322130322456,
				-0.01744263805449009,
				0.008522027172148228,
				0.999615490436554
			],
			"scale":[
				1,
				1.0000001192092896,
				1.0000001192092896
			],
			"translation":[
				1.862645149230957e-09,
				0.4501798748970032,
				-8.913775673136115e-08
			]
		},
		{
			"name":"Thumb2.R",
			"rotation":[
				-0.07893174141645432,
				0.29791364073753357,
				-0.1416628509759903,
				0.9407172799110413
			],
			"scale":[
				1,
				0.9999999403953552,
				1
			],
			"translation":[
				2.9802322387695312e-08,
				0.10481107234954834,
				4.7497451305389404e-08
			]
		},
		{
			"children":[
				14
			],
			"name":"Thumb1.R",
			"rotation":[
				-0.1710575670003891,
				-0.0837445929646492,
				0.432979017496109,
				0.8810535669326782
			],
			"scale":[
				1.0000001192092896,
				1,
				1
			],
			"translation":[
				1.862645149230957e-09,
				0.4501798748970032,
				-8.913775673136115e-08
			]
		},
		{
			"children":[
				13,
				15
			],
			"name":"LowerArm.R",
			"rotation":[
				-0.012309781275689602,
				-0.03282846510410309,
				0.019624685868620872,
				0.9991925358772278
			],
			"scale":[
				1.0000001192092896,
				1,
				1
			],
			"translation":[
				7.450580596923828e-09,
				0.3922334909439087,
				2.584420144557953e-08
			]
		},
		{
			"children":[
				16
			],
			"name":"UpperArm.R",
			"rotation":[
				-0.27524998784065247,
				0.6747888922691345,
				0.22148945927619934,
				0.6479504704475403
			],
			"scale":[
				1,
				0.9999999403953552,
				0.9999999403953552
			],
			"translation":[
				2.6422632970479754e-08,
				0.2582060694694519,
				-6.994014256633818e-10
			]
		},
		{
			"children":[
				17
			],
			"name":"Shoulder.R",
			"rotation":[
				-0.033020809292793274,
				0.01495407335460186,
				0.41228097677230835,
				0.91033536195755
			],
			"scale":[
				1,
				1,
				0.9999999403953552
			],
			"translation":[
				-0.12482606619596481,
				0.14141403138637543,
				0.012646207585930824
			]
		},
		{
			"children":[
				1,
				9,
				18
			],
			"name":"Torso",
			"rotation":[
				-0.08232193440198898,
				-8.29508394417644e-07,
				-1.8395478917909713e-08,
				0.9966057538986206
			],
			"translation":[
				4.0749625895841746e-12,
				0.32525283098220825,
				-2.3025851447755485e-08
			]
		},
		{
			"children":[
				19
			],
			"name":"Abdomen",
			"rotation":[
				0.2311880737543106,
				3.101513073033857e-07,
				1.7024261467213364e-07,
				0.9729090332984924
			],
			"translation":[
				5.367795097299677e-11,
				0.2217743992805481,
				7.183530659204962e-09
			]
		},
		{
			"children":[
				20
			],
			"name":"Hips",
			"rotation":[
				-0.11437447369098663,
				-1.474709989679468e-07,
				-6.46585363028862e-08,
				0.9934377074241638
			],
			"translation":[
				-0.0014798843767493963,
				-0.11307918280363083,
				-0.11569905281066895
			]
		},
		{
			"name":"Foot.L",
			"rotation":[
				-6.08406799074146e-06,
				0.6776012182235718,
				-0.7354295253753662,
				5.624725872621639e-06
			],
			"scale":[
				1,
				1,
				0.9999999403953552
			],
			"translation":[
				-3.212352162051957e-09,
				0.5880300998687744,
				-1.7887984427034098e-09
			]
		},
		{
			"children":[
				22
			],
			"name":"LowerLeg.L",
			"rotation":[
				0.08880557864904404,
				0.0011890096357092261,
				0.008002589456737041,
				0.9960161447525024
			],
			"scale":[
				1,
				1.0000001192092896,
				1
			],
			"translation":[
				-1.2618329492397606e-08,
				0.5520466566085815,
				2.6775524020195007e-09
			]
		},
		{
			"children":[
				23
			],
			"name":"UpperLeg.L",
			"rotation":[
				0.9990785121917725,
				0.00804942473769188,
				-0.0008132282528094947,
				0.042150840163230896
			],
			"scale":[
				0.9999998807907104,
				1.0000001192092896,
				0.999998152256012
			],
			"translation":[
				0.1954188495874405,
				0.018798235803842545,
				-0.09142390638589859
			]
		},
		{
			"name":"Foot.R",
			"rotation":[
				-6.085395398258697e-06,
				-0.6776012182235718,
				0.7354295253753662,
				5.6247267821163405e-06
			],
			"translation":[
				3.4357461320411176e-09,
				0.5880301594734192,
				3.842224316485954e-09
			]
		},
		{
			"children":[
				25
			],
			"name":"LowerLeg.R",
			"rotation":[
				0.08880557119846344,
				-0.0011889954330399632,
				-0.008002588525414467,
				0.9960161447525024
			],
			"scale":[
				1,
				1.0000001192092896,
				1.0000001192092896
			],
			"translation":[
				-9.034920367412269e-09,
				0.5520466566085815,
				6.548361852765083e-10
			]
		},
		{
			"children":[
				26
			],
			"name":"UpperLeg.R",
			"rotation":[
				0.9990785121917725,
				-0.008049448020756245,
				0.0008139440906234086,
				0.042150840163230896
			],
			"scale":[
				0.9999998807907104,
				1,
				0.9999983310699463
			],
			"translation":[
				-0.20403647422790527,
				0.018798235803842545,
				-0.09142419695854187
			]
		},
		{
			"children":[
				21,
				24,
				27
			],
			"name":"Body",
			"rotation":[
				-3.552703514405134e-15,
				1.192093463942001e-07,
				8.470329472543003e-22,
				1
			],
			"translation":[
				0.002153033157810569,
				1.14121675491333,
				0.0548107884824276
			]
		},
		{
			"children":[
				28
			],
			"name":"Root",
			"rotation":[
				-2.980232594040899e-08,
				2.3841855067985307e-07,
				0,
				1
			],
			"scale":[
				1,
				0.9999999403953552,
				0.9999999403953552
			],
			"translation":[
				-0.0013114691246300936,
				-0.0024153697304427624,
				-0.00011468419688753784
			]
		},
		{
			"mesh":0,
			"name":"Armor_Chest",
			"skin":0
		},
		{
			"mesh":1,
			"name":"Belt_Waist",
			"skin":0
		},
		{
			"mesh":2,
			"name":"Legs_Greaves",
			"skin":0
		},
		{
			"mesh":3,
			"name":"Shoulders_Pauldrons",
			"skin":0
		},
		{
			"children":[
				30,
				31,
				32,
				33,
				29
			],
			"name":"CharacterArmature"
		}
	],
	"materials":[
		{
			"doubleSided":true,
			"name":"Armor_Chest",
			"pbrMetallicRoughness":{
				"baseColorFactor":[
					0.800000011920929,
					0.800000011920929,
					0.800000011920929,
					1
				],
				"metallicFactor":0,
				"roughnessFactor":0.4000000059604645
			}
		},
		{
			"doubleSided":true,
			"name":"Belt_Waist",
			"pbrMetallicRoughness":{
				"baseColorFactor":[
					0.800000011920929,
					0.800000011920929,
					0.800000011920929,
					1
				],
				"metallicFactor":0,
				"roughnessFactor":0.4000000059604645
			}
		},
		{
			"doubleSided":true,
			"name":"Legs_Greaves",
			"pbrMetallicRoughness":{
				"baseColorFactor":[
					0.800000011920929,
					0.800000011920929,
					0.800000011920929,
					1
				],
				"metallicFactor":0,
				"roughnessFactor":0.4000000059604645
			}
		},
		{
			"doubleSided":true,
			"name":"Shoulders_Pauldrons",
			"pbrMetallicRoughness":{
				"baseColorFactor":[
					0.800000011920929,
					0.800000011920929,
					0.800000011920929,
					1
				],
				"metallicFactor":0,
				"roughnessFactor":0.4000000059604645
			}
		}
	],
	"meshes":[
		{
			"name":"_ncl1_29.003",
			"primitives":[
				{
					"attributes":{
						"POSITION":0,
						"NORMAL":1,
						"TEXCOORD_0":2,
						"JOINTS_0":3,
						"WEIGHTS_0":4
					},
					"indices":5,
					"material":0
				}
			]
		},
		{
			"name":"_ncl1_29.006",
			"primitives":[
				{
					"attributes":{
						"POSITION":7,
						"NORMAL":8,
						"TEXCOORD_0":9,
						"JOINTS_0":10,
						"WEIGHTS_0":11
					},
					"indices":12,
					"material":1
				}
			]
		},
		{
			"name":"_ncl1_29.004",
			"primitives":[
				{
					"attributes":{
						"POSITION":13,
						"NORMAL":14,
						"TEXCOORD_0":15,
						"JOINTS_0":16,
						"WEIGHTS_0":17
					},
					"indices":18,
					"material":2
				}
			]
		},
		{
			"name":"_ncl1_29.007",
			"primitives":[
				{
					"attributes":{
						"POSITION":19,
						"NORMAL":20,
						"TEXCOORD_0":21,
						"JOINTS_0":22,
						"WEIGHTS_0":23
					},
					"indices":24,
					"material":3
				}
			]
		}
	],
	"skins":[
		{
			"inverseBindMatrices":6,
			"joints":[
				29,
				28,
				21,
				20,
				19,
				1,
				0,
				9,
				8,
				7,
				4,
				3,
				2,
				6,
				5,
				18,
				17,
				16,
				13,
				12,
				10,
				11,
				15,
				14,
				24,
				23,
				22,
				27,
				26,
				25
			],
			"name":"CharacterArmature"
		}
	],
	"accessors":[
		{
			"bufferView":0,
			"componentType":5126,
			"count":109,
			"max":[
				0.2322853058576584,
				1.9722086191177368,
				0.30325502157211304
			],
			"min":[
				-0.2322853058576584,
				0.9648619890213013,
				-0.4717766344547272
			],
			"type":"VEC3"
		},
		{
			"bufferView":1,
			"componentType":5126,
			"count":109,
			"type":"VEC3"
		},
		{
			"bufferView":2,
			"componentType":5126,
			"count":109,
			"type":"VEC2"
		},
		{
			"bufferView":3,
			"componentType":5121,
			"count":109,
			"type":"VEC4"
		},
		{
			"bufferView":4,
			"componentType":5126,
			"count":109,
			"type":"VEC4"
		},
		{
			"bufferView":5,
			"componentType":5123,
			"count":282,
			"type":"SCALAR"
		},
		{
			"bufferView":6,
			"componentType":5126,
			"count":30,
			"type":"MAT4"
		},
		{
			"bufferView":7,
			"componentType":5126,
			"count":67,
			"max":[
				0.21927620470523834,
				1.4260023832321167,
				0.17191457748413086
			],
			"min":[
				-0.21927620470523834,
				0.9648619890213013,
				-0.4717766344547272
			],
			"type":"VEC3"
		},
		{
			"bufferView":8,
			"componentType":5126,
			"count":67,
			"type":"VEC3"
		},
		{
			"bufferView":9,
			"componentType":5126,
			"count":67,
			"type":"VEC2"
		},
		{
			"bufferView":10,
			"componentType":5121,
			"count":67,
			"type":"VEC4"
		},
		{
			"bufferView":11,
			"componentType":5126,
			"count":67,
			"type":"VEC4"
		},
		{
			"bufferView":12,
			"componentType":5123,
			"count":180,
			"type":"SCALAR"
		},
		{
			"bufferView":13,
			"componentType":5126,
			"count":554,
			"max":[
				0.4810682535171509,
				1.3044896125793457,
				0.2938823997974396
			],
			"min":[
				-0.4810682535171509,
				-0.0032756314612925053,
				-0.5547762513160706
			],
			"type":"VEC3"
		},
		{
			"bufferView":14,
			"componentType":5126,
			"count":554,
			"type":"VEC3"
		},
		{
			"bufferView":15,
			"componentType":5126,
			"count":554,
			"type":"VEC2"
		},
		{
			"bufferView":16,
			"componentType":5121,
			"count":554,
			"type":"VEC4"
		},
		{
			"bufferView":17,
			"componentType":5126,
			"count":554,
			"type":"VEC4"
		},
		{
			"bufferView":18,
			"componentType":5123,
			"count":1458,
			"type":"SCALAR"
		},
		{
			"bufferView":19,
			"componentType":5126,
			"count":486,
			"max":[
				0.7860791087150574,
				2.1607251167297363,
				0.1989302933216095
			],
			"min":[
				-0.7860791087150574,
				1.9146173000335693,
				-0.2592447102069855
			],
			"type":"VEC3"
		},
		{
			"bufferView":20,
			"componentType":5126,
			"count":486,
			"type":"VEC3"
		},
		{
			"bufferView":21,
			"componentType":5126,
			"count":486,
			"type":"VEC2"
		},
		{
			"bufferView":22,
			"componentType":5121,
			"count":486,
			"type":"VEC4"
		},
		{
			"bufferView":23,
			"componentType":5126,
			"count":486,
			"type":"VEC4"
		},
		{
			"bufferView":24,
			"componentType":5123,
			"count":1488,
			"type":"SCALAR"
		}
	],
	"bufferViews":[
		{
			"buffer":0,
			"byteLength":1308,
			"byteOffset":0,
			"target":34962
		},
		{
			"buffer":0,
			"byteLength":1308,
			"byteOffset":1308,
			"target":34962
		},
		{
			"buffer":0,
			"byteLength":872,
			"byteOffset":2616,
			"target":34962
		},
		{
			"buffer":0,
			"byteLength":436,
			"byteOffset":3488,
			"target":34962
		},
		{
			"buffer":0,
			"byteLength":1744,
			"byteOffset":3924,
			"target":34962
		},
		{
			"buffer":0,
			"byteLength":564,
			"byteOffset":5668,
			"target":34963
		},
		{
			"buffer":0,
			"byteLength":1920,
			"byteOffset":6232
		},
		{
			"buffer":0,
			"byteLength":804,
			"byteOffset":8152,
			"target":34962
		},
		{
			"buffer":0,
			"byteLength":804,
			"byteOffset":8956,
			"target":34962
		},
		{
			"buffer":0,
			"byteLength":536,
			"byteOffset":9760,
			"target":34962
		},
		{
			"buffer":0,
			"byteLength":268,
			"byteOffset":10296,
			"target":34962
		},
		{
			"buffer":0,
			"byteLength":1072,
			"byteOffset":10564,
			"target":34962
		},
		{
			"buffer":0,
			"byteLength":360,
			"byteOffset":11636,
			"target":34963
		},
		{
			"buffer":0,
			"byteLength":6648,
			"byteOffset":11996,
			"target":34962
		},
		{
			"buffer":0,
			"byteLength":6648,
			"byteOffset":18644,
			"target":34962
		},
		{
			"buffer":0,
			"byteLength":4432,
			"byteOffset":25292,
			"target":34962
		},
		{
			"buffer":0,
			"byteLength":2216,
			"byteOffset":29724,
			"target":34962
		},
		{
			"buffer":0,
			"byteLength":8864,
			"byteOffset":31940,
			"target":34962
		},
		{
			"buffer":0,
			"byteLength":2916,
			"byteOffset":40804,
			"target":34963
		},
		{
			"buffer":0,
			"byteLength":5832,
			"byteOffset":43720,
			"target":34962
		},
		{
			"buffer":0,
			"byteLength":5832,
			"byteOffset":49552,
			"target":34962
		},
		{
			"buffer":0,
			"byteLength":3888,
			"byteOffset":55384,
			"target":34962
		},
		{
			"buffer":0,
			"byteLength":1944,
			"byteOffset":59272,
			"target":34962
		},
		{
			"buffer":0,
			"byteLength":7776,
			"byteOffset":61216,
			"target":34962
		},
		{
			"buffer":0,
			"byteLength":2976,
			"byteOffset":68992,
			"target":34963
		}
	],
	"buffers":[
		{
			"byteLength":71968,
			"uri":"Warrior_Modular.bin"
		}
	]
}
