{
	"asset":{
		"generator":"Khronos glTF Blender I/O v4.2.70",
		"version":"2.0"
	},
	"scene":0,
	"scenes":[
		{
			"name":"Scene",
			"nodes":[
				40,
				41
			]
		}
	],
	"nodes":[
		{
			"name":"Foot.L",
			"rotation":[
				5.854426035512006e-06,
				0.7029520273208618,
				0.711237370967865,
				5.835160663991701e-06
			],
			"scale":[
				1,
				0.9999998211860657,
				0.9999998807907104
			],
			"translation":[
				0.20781449973583221,
				0.024662867188453674,
				-0.04505542665719986
			]
		},
		{
			"mesh":1,
			"name":"Face_Outfit",
			"rotation":[
				-1.9557750974286137e-08,
				0.00027510159998200834,
				-7.809899238821541e-14,
				0.9999999403953552
			],
			"scale":[
				0.9999998807907104,
				0.9999999403953552,
				0.9999999403953552
			],
			"translation":[
				0.0006107350927777588,
				0.4069380760192871,
				-0.050233226269483566
			]
		},
		{
			"mesh":2,
			"name":"Face_Skin",
			"rotation":[
				-1.9557750974286137e-08,
				0.00027510159998200834,
				-7.809899238821541e-14,
				0.9999999403953552
			],
			"scale":[
				0.9999998807907104,
				0.9999999403953552,
				0.9999999403953552
			],
			"translation":[
				0.0006107350927777588,
				0.4069380760192871,
				-0.050233226269483566
			]
		},
		{
			"children":[
				1,
				2
			],
			"name":"Head",
			"rotation":[
				-7.642778854233256e-09,
				-0.00027547753416001797,
				2.0978819809808202e-12,
				1
			],
			"scale":[
				0.9999999403953552,
				1,
				0.9999999403953552
			],
			"translation":[
				6.441586847261149e-11,
				0.13127493858337402,
				8.358158609667043e-11
			]
		},
		{
			"children":[
				3
			],
			"name":"Neck",
			"rotation":[
				-0.036250170320272446,
				6.827197580605571e-07,
				-2.4897099937248868e-09,
				0.9993427395820618
			],
			"scale":[
				1,
				1,
				0.9999999403953552
			],
			"translation":[
				4.2266856681294485e-11,
				0.4391976594924927,
				-5.6613225218882235e-09
			]
		},
		{
			"name":"Fist2.L",
			"rotation":[
				-0.14578020572662354,
				1.7498399174087353e-08,
				3.413604687807492e-08,
				0.989316999912262
			],
			"translation":[
				-1.1429126089979036e-08,
				0.10797257721424103,
				-6.957323250844638e-08
			]
		},
		{
			"children":[
				5
			],
			"name":"Fist1.L",
			"rotation":[
				-0.06264130026102066,
				-0.018810421228408813,
				-0.0011808385606855154,
				0.9978581666946411
			],
			"scale":[
				1,
				1,
				0.9999999403953552
			],
			"translation":[
				1.6065314412117004e-08,
				0.12674947082996368,
				-4.774192348122597e-07
			]
		},
		{
			"children":[
				6
			],
			"name":"Fist.L",
			"rotation":[
				0.01980031095445156,
				0.01744266413152218,
				-0.008522024378180504,
				0.999615490436554
			],
			"scale":[
				1,
				1.0000001192092896,
				1.0000001192092896
			],
			"translation":[
				9.778887033462524e-09,
				0.4501799941062927,
				-2.1869345800951123e-07
			]
		},
		{
			"name":"Thumb2.L",
			"rotation":[
				-0.07893151044845581,
				-0.2979133725166321,
				0.1416628062725067,
				0.940717339515686
			],
			"scale":[
				1,
				1,
				0.9999999403953552
			],
			"translation":[
				-6.891787052154541e-08,
				0.1048111766576767,
				1.210719347000122e-08
			]
		},
		{
			"children":[
				8
			],
			"name":"Thumb1.L",
			"rotation":[
				-0.17105744779109955,
				0.08374448120594025,
				-0.432979017496109,
				0.8810535669326782
			],
			"scale":[
				1,
				1.0000001192092896,
				1
			],
			"translation":[
				8.381903171539307e-08,
				0.4501799941062927,
				-9.929499356076121e-08
			]
		},
		{
			"children":[
				7,
				9
			],
			"name":"LowerArm.L",
			"rotation":[
				-0.01230976078659296,
				0.032828424125909805,
				-0.019624708220362663,
				0.9991925358772278
			],
			"translation":[
				1.4901161193847656e-08,
				0.39223378896713257,
				3.4691765904426575e-08
			]
		},
		{
			"mesh":3,
			"name":"ShoulderPad.L_Outfit",
			"rotation":[
				0.529120147228241,
				0.5011321902275085,
				0.46907562017440796,
				0.4988652467727661
			],
			"scale":[
				0.655002772808075,
				0.6550024747848511,
				0.6550025939941406
			],
			"translation":[
				-0.00476655550301075,
				0.1865837723016739,
				0.12547887861728668
			]
		},
		{
			"children":[
				10,
				11
			],
			"name":"UpperArm.L",
			"rotation":[
				-0.27525004744529724,
				-0.6747888326644897,
				-0.22148947417736053,
				0.6479505300521851
			],
			"scale":[
				0.9999999403953552,
				0.9999998211860657,
				0.9999999403953552
			],
			"translation":[
				1.996168492723882e-07,
				0.25820598006248474,
				-8.089386938081589e-10
			]
		},
		{
			"children":[
				12
			],
			"name":"Shoulder.L",
			"rotation":[
				-0.03302106261253357,
				-0.014953509904444218,
				-0.41228097677230835,
				0.91033536195755
			],
			"scale":[
				0.9999999403953552,
				1,
				0.9999999403953552
			],
			"translation":[
				0.12610280513763428,
				0.14141391217708588,
				0.012646056711673737
			]
		},
		{
			"name":"Fist2.R",
			"rotation":[
				-0.1457795798778534,
				-1.1693864543360633e-08,
				-4.059663183397788e-08,
				0.9893171191215515
			],
			"scale":[
				1,
				1,
				0.9999998807907104
			],
			"translation":[
				1.3181118418970073e-09,
				0.1079721748828888,
				-1.7190264145483525e-07
			]
		},
		{
			"name":"Weapon.R",
			"rotation":[
				-1.8626471476324014e-09,
				-3.911560142455528e-08,
				8.881784197001252e-16,
				1
			],
			"scale":[
				1,
				0.9999999403953552,
				0.9999999403953552
			],
			"translation":[
				0.02097919024527073,
				-0.018025429919362068,
				-1.9072373902417894e-07
			]
		},
		{
			"children":[
				14,
				15
			],
			"name":"Fist1.R",
			"rotation":[
				-0.06264133751392365,
				0.018810424953699112,
				0.0011808068957179785,
				0.9978581666946411
			],
			"translation":[
				-1.6880221664905548e-08,
				0.12674959003925323,
				-3.3853575587272644e-07
			]
		},
		{
			"children":[
				16
			],
			"name":"Fist.R",
			"rotation":[
				0.01980031654238701,
				-0.017442652955651283,
				0.008522032760083675,
				0.999615490436554
			],
			"scale":[
				1,
				1.0000001192092896,
				1.0000001192092896
			],
			"translation":[
				3.259629011154175e-09,
				0.45017966628074646,
				1.360021997243166e-07
			]
		},
		{
			"name":"Thumb2.R",
			"rotation":[
				-0.07893164455890656,
				0.29791370034217834,
				-0.14166274666786194,
				0.9407172799110413
			],
			"scale":[
				0.9999999403953552,
				0.9999998211860657,
				0.9999999403953552
			],
			"translation":[
				3.166496753692627e-08,
				0.10481081902980804,
				2.915039658546448e-07
			]
		},
		{
			"children":[
				18
			],
			"name":"Thumb1.R",
			"rotation":[
				-0.17105765640735626,
				-0.08374471217393875,
				0.4329790771007538,
				0.8810535073280334
			],
			"scale":[
				1,
				1,
				1.0000001192092896
			],
			"translation":[
				1.862645149230957e-09,
				0.45017969608306885,
				-4.6004424802958965e-07
			]
		},
		{
			"children":[
				17,
				19
			],
			"name":"LowerArm.R",
			"rotation":[
				-0.01230973657220602,
				-0.03282846510410309,
				0.019624678418040276,
				0.9991925358772278
			],
			"scale":[
				0.9999999403953552,
				1,
				1
			],
			"translation":[
				0,
				0.39223355054855347,
				-1.6042031347751617e-07
			]
		},
		{
			"mesh":4,
			"name":"ShoulderPad.R_Outfit",
			"rotation":[
				0.529120147228241,
				-0.5011321902275085,
				-0.46907564997673035,
				0.4988652467727661
			],
			"scale":[
				0.6550025939941406,
				0.6550026535987854,
				0.6550025939941406
			],
			"translation":[
				0.004766540601849556,
				0.18658345937728882,
				0.12547914683818817
			]
		},
		{
			"children":[
				20,
				21
			],
			"name":"UpperArm.R",
			"rotation":[
				-0.2752499580383301,
				0.6747888922691345,
				0.22148948907852173,
				0.6479504108428955
			],
			"scale":[
				1.0000001192092896,
				1.0000001192092896,
				1
			],
			"translation":[
				-6.531460172709558e-08,
				0.2582060396671295,
				-8.256506589532364e-10
			]
		},
		{
			"children":[
				22
			],
			"name":"Shoulder.R",
			"rotation":[
				-0.03302080184221268,
				0.014954080805182457,
				0.4122810363769531,
				0.91033536195755
			],
			"scale":[
				1,
				1,
				0.9999999403953552
			],
			"translation":[
				-0.12482606619596481,
				0.14141391217708588,
				0.012646217830479145
			]
		},
		{
			"children":[
				4,
				13,
				23
			],
			"name":"Torso",
			"rotation":[
				-0.082321897149086,
				-8.409328984271269e-07,
				-1.887726419624869e-08,
				0.9966058135032654
			],
			"scale":[
				1,
				1,
				0.9999999403953552
			],
			"translation":[
				-2.4343194127141032e-11,
				0.32525259256362915,
				3.040243168328516e-09
			]
		},
		{
			"mesh":5,
			"name":"Pouch_Outfit",
			"rotation":[
				-0.1183948963880539,
				-5.242769702817895e-07,
				-6.248925643603798e-08,
				0.9929665923118591
			],
			"translation":[
				0.3312680721282959,
				0.07862040400505066,
				0.16999410092830658
			]
		},
		{
			"children":[
				24,
				25
			],
			"name":"Abdomen",
			"rotation":[
				0.23118813335895538,
				3.152625254188024e-07,
				1.7295823795393517e-07,
				0.9729090332984924
			],
			"translation":[
				5.919886802985275e-11,
				0.2217743843793869,
				1.4629899069973362e-08
			]
		},
		{
			"children":[
				26
			],
			"name":"Hips",
			"rotation":[
				-0.11437448114156723,
				-1.4437276263379317e-07,
				-6.501528559965664e-08,
				0.9934377074241638
			],
			"translation":[
				-0.0014798843767493963,
				-0.11307907104492188,
				-0.11569906026124954
			]
		},
		{
			"name":"LowerLeg.L",
			"rotation":[
				0.08880452066659927,
				0.0011890372261404991,
				0.008002587594091892,
				0.9960162043571472
			],
			"scale":[
				1,
				1.0000001192092896,
				1.0000001192092896
			],
			"translation":[
				1.6043486539274454e-08,
				0.552046537399292,
				7.261405698955059e-09
			]
		},
		{
			"children":[
				28
			],
			"name":"UpperLeg.L",
			"rotation":[
				0.9990785121917725,
				0.008049377240240574,
				-0.000814462429843843,
				0.04215051978826523
			],
			"scale":[
				1.0000003576278687,
				1,
				1.0000128746032715
			],
			"translation":[
				0.19541878998279572,
				0.018798112869262695,
				-0.0914238840341568
			]
		},
		{
			"name":"LowerLeg.R",
			"rotation":[
				0.08880438655614853,
				-0.0011889869347214699,
				-0.008002594113349915,
				0.9960162043571472
			],
			"scale":[
				0.9999999403953552,
				1.0000001192092896,
				1
			],
			"translation":[
				-4.197136149741709e-08,
				0.552046537399292,
				-6.363552529364824e-08
			]
		},
		{
			"children":[
				30
			],
			"name":"UpperLeg.R",
			"rotation":[
				0.9990785121917725,
				-0.008049402385950089,
				0.0008151931688189507,
				0.04215051606297493
			],
			"scale":[
				1.0000003576278687,
				1,
				1.000012993812561
			],
			"translation":[
				-0.20403647422790527,
				0.018798112869262695,
				-0.09142418205738068
			]
		},
		{
			"children":[
				27,
				29,
				31
			],
			"name":"Body",
			"rotation":[
				1.0097419586828951e-28,
				1.1878111649821221e-07,
				1.399439245862075e-27,
				1
			],
			"translation":[
				0.002153033157810569,
				1.1412163972854614,
				0.054810818284749985
			]
		},
		{
			"name":"PoleTarget.L",
			"rotation":[
				-1.0097419586828951e-28,
				1.185959206395637e-07,
				1.398650384956854e-27,
				1
			],
			"translation":[
				0.20438390970230103,
				0.7245326042175293,
				0.9631468653678894
			]
		},
		{
			"name":"Foot.R",
			"rotation":[
				6.095190201449441e-06,
				-0.7029520273208618,
				-0.711237370967865,
				5.583765414485242e-06
			],
			"scale":[
				1,
				0.9999998211860657,
				0.9999998807907104
			],
			"translation":[
				-0.21212609112262726,
				0.024662867188453674,
				-0.04505562409758568
			]
		},
		{
			"name":"PoleTarget.R",
			"rotation":[
				2.0194839173657902e-28,
				-5.966599019302521e-07,
				-1.398650384956854e-27,
				1
			],
			"translation":[
				-0.20869645476341248,
				0.7245324850082397,
				0.9631465077400208
			]
		},
		{
			"children":[
				0,
				32,
				33,
				34,
				35
			],
			"name":"Root",
			"rotation":[
				-8.55673043531624e-09,
				2.390320048561989e-07,
				-4.090664727118181e-15,
				1
			],
			"translation":[
				-0.0013114692410454154,
				-0.0024153697304427624,
				-0.00011468418961158022
			]
		},
		{
			"mesh":0,
			"name":"Wizard.001_Hair",
			"skin":0
		},
		{
			"mesh":6,
			"name":"Wizard.001_Outfit",
			"skin":0
		},
		{
			"mesh":7,
			"name":"Wizard.001_Skin",
			"skin":0
		},
		{
			"children":[
				37,
				38,
				39,
				36
			],
			"name":"CharacterArmature"
		},
		{
			"mesh":8,
			"name":"Icosphere_Outfit"
		}
	],
	"materials":[
		{
			"alphaMode":"BLEND",
			"doubleSided":true,
			"name":"Hair",
			"pbrMetallicRoughness":{
				"baseColorTexture":{
					"index":0
				},
				"metallicFactor":0
			}
		},
		{
			"alphaMode":"BLEND",
			"doubleSided":true,
			"name":"Wizard_Outfit_Texture",
			"pbrMetallicRoughness":{
				"baseColorTexture":{
					"index":1
				},
				"metallicFactor":0
			}
		},
		{
			"alphaMode":"BLEND",
			"doubleSided":true,
			"name":"Skin",
			"pbrMetallicRoughness":{
				"baseColorTexture":{
					"index":2
				},
				"metallicFactor":0
			}
		}
	],
	"meshes":[
		{
			"name":"_ncl1_29.008",
			"primitives":[
				{
					"attributes":{
						"POSITION":0,
						"NORMAL":1,
						"TEXCOORD_0":2,
						"JOINTS_0":3,
						"WEIGHTS_0":4
					},
					"indices":5,
					"material":0
				}
			]
		},
		{
			"name":"_ncl1_29.009",
			"primitives":[
				{
					"attributes":{
						"POSITION":7,
						"NORMAL":8,
						"TEXCOORD_0":9
					},
					"indices":10,
					"material":1
				}
			]
		},
		{
			"name":"_ncl1_29.007",
			"primitives":[
				{
					"attributes":{
						"POSITION":11,
						"NORMAL":12,
						"TEXCOORD_0":13
					},
					"indices":10,
					"material":2
				}
			]
		},
		{
			"name":"_ncl1_29.011",
			"primitives":[
				{
					"attributes":{
						"POSITION":14,
						"NORMAL":15,
						"TEXCOORD_0":16
					},
					"indices":17,
					"material":1
				}
			]
		},
		{
			"name":"_ncl1_29.012",
			"primitives":[
				{
					"attributes":{
						"POSITION":18,
						"NORMAL":19,
						"TEXCOORD_0":20
					},
					"indices":21,
					"material":1
				}
			]
		},
		{
			"name":"_ncl1_29.010",
			"primitives":[
				{
					"attributes":{
						"POSITION":22,
						"NORMAL":23,
						"TEXCOORD_0":24
					},
					"indices":25,
					"material":1
				}
			]
		},
		{
			"name":"_ncl1_29.013",
			"primitives":[
				{
					"attributes":{
						"POSITION":26,
						"NORMAL":27,
						"TEXCOORD_0":28,
						"JOINTS_0":29,
						"WEIGHTS_0":30
					},
					"indices":5,
					"material":1
				}
			]
		},
		{
			"name":"_ncl1_29.003",
			"primitives":[
				{
					"attributes":{
						"POSITION":31,
						"NORMAL":32,
						"TEXCOORD_0":33,
						"JOINTS_0":34,
						"WEIGHTS_0":35
					},
					"indices":5,
					"material":2
				}
			]
		},
		{
			"name":"Icosphere.001",
			"primitives":[
				{
					"attributes":{
						"POSITION":36,
						"NORMAL":37,
						"TEXCOORD_0":38
					},
					"indices":39,
					"material":1
				}
			]
		}
	],
	"textures":[
		{
			"sampler":0,
			"source":0
		},
		{
			"sampler":0,
			"source":1
		},
		{
			"sampler":0,
			"source":2
		}
	],
	"images":[
		{
			"mimeType":"image/png",
			"name":"Wizard_Tintable_hair",
			"uri":"Wizard_Tintable_hair.png"
		},
		{
			"mimeType":"image/png",
			"name":"Wizard_Tintable_outfit",
			"uri":"Wizard_Tintable_outfit.png"
		},
		{
			"mimeType":"image/png",
			"name":"Wizard_Tintable_skin",
			"uri":"Wizard_Tintable_skin.png"
		}
	],
	"skins":[
		{
			"inverseBindMatrices":6,
			"joints":[
				36,
				0,
				32,
				27,
				26,
				24,
				4,
				3,
				13,
				12,
				10,
				7,
				6,
				5,
				9,
				8,
				23,
				22,
				20,
				17,
				16,
				14,
				15,
				19,
				18,
				29,
				28,
				31,
				30,
				33,
				34,
				35
			],
			"name":"CharacterArmature"
		}
	],
	"accessors":[
		{
			"bufferView":0,
			"componentType":5126,
			"count":1184,
			"max":[
				1.5261188745498657,
				2.994321346282959,
				0.3785591721534729
			],
			"min":[
				-1.5261187553405762,
				-0.0033061434514820576,
				-0.4981870651245117
			],
			"type":"VEC3"
		},
		{
			"bufferView":1,
			"componentType":5126,
			"count":1184,
			"type":"VEC3"
		},
		{
			"bufferView":2,
			"componentType":5126,
			"count":1184,
			"type":"VEC2"
		},
		{
			"bufferView":3,
			"componentType":5121,
			"count":1184,
			"type":"VEC4"
		},
		{
			"bufferView":4,
			"componentType":5126,
			"count":1184,
			"type":"VEC4"
		},
		{
			"bufferView":5,
			"componentType":5123,
			"count":3726,
			"type":"SCALAR"
		},
		{
			"bufferView":6,
			"componentType":5126,
			"count":32,
			"type":"MAT4"
		},
		{
			"bufferView":7,
			"componentType":5126,
			"count":2893,
			"max":[
				0.3491894602775574,
				0.5406283140182495,
				0.39632946252822876
			],
			"min":[
				-0.3491894602775574,
				-0.4996381103992462,
				-0.6657452583312988
			],
			"type":"VEC3"
		},
		{
			"bufferView":8,
			"componentType":5126,
			"count":2893,
			"type":"VEC3"
		},
		{
			"bufferView":9,
			"componentType":5126,
			"count":2893,
			"type":"VEC2"
		},
		{
			"bufferView":10,
			"componentType":5123,
			"count":7860,
			"type":"SCALAR"
		},
		{
			"bufferView":11,
			"componentType":5126,
			"count":2893,
			"max":[
				0.3491894602775574,
				0.5406283140182495,
				0.39632946252822876
			],
			"min":[
				-0.3491894602775574,
				-0.4996381103992462,
				-0.6657452583312988
			],
			"type":"VEC3"
		},
		{
			"bufferView":12,
			"componentType":5126,
			"count":2893,
			"type":"VEC3"
		},
		{
			"bufferView":13,
			"componentType":5126,
			"count":2893,
			"type":"VEC2"
		},
		{
			"bufferView":14,
			"componentType":5126,
			"count":24,
			"max":[
				0.190290629863739,
				0.30165791511535645,
				0.20674282312393188
			],
			"min":[
				-0.35597601532936096,
				-0.20632004737854004,
				-0.19478869438171387
			],
			"type":"VEC3"
		},
		{
			"bufferView":15,
			"componentType":5126,
			"count":24,
			"type":"VEC3"
		},
		{
			"bufferView":16,
			"componentType":5126,
			"count":24,
			"type":"VEC2"
		},
		{
			"bufferView":17,
			"componentType":5123,
			"count":72,
			"type":"SCALAR"
		},
		{
			"bufferView":18,
			"componentType":5126,
			"count":24,
			"max":[
				0.35597601532936096,
				0.30165791511535645,
				0.20674282312393188
			],
			"min":[
				-0.190290629863739,
				-0.20632004737854004,
				-0.19478869438171387
			],
			"type":"VEC3"
		},
		{
			"bufferView":19,
			"componentType":5126,
			"count":24,
			"type":"VEC3"
		},
		{
			"bufferView":20,
			"componentType":5126,
			"count":24,
			"type":"VEC2"
		},
		{
			"bufferView":21,
			"componentType":5123,
			"count":72,
			"type":"SCALAR"
		},
		{
			"bufferView":22,
			"componentType":5126,
			"count":144,
			"max":[
				0.09768001735210419,
				0.10473267734050751,
				0.1228662058711052
			],
			"min":[
				-0.14577224850654602,
				-0.1375725120306015,
				-0.15080057084560394
			],
			"type":"VEC3"
		},
		{
			"bufferView":23,
			"componentType":5126,
			"count":144,
			"type":"VEC3"
		},
		{
			"bufferView":24,
			"componentType":5126,
			"count":144,
			"type":"VEC2"
		},
		{
			"bufferView":25,
			"componentType":5123,
			"count":540,
			"type":"SCALAR"
		},
		{
			"bufferView":26,
			"componentType":5126,
			"count":1184,
			"max":[
				1.5261188745498657,
				2.994321346282959,
				0.3785591721534729
			],
			"min":[
				-1.5261187553405762,
				-0.0033061434514820576,
				-0.4981870651245117
			],
			"type":"VEC3"
		},
		{
			"bufferView":27,
			"componentType":5126,
			"count":1184,
			"type":"VEC3"
		},
		{
			"bufferView":28,
			"componentType":5126,
			"count":1184,
			"type":"VEC2"
		},
		{
			"bufferView":29,
			"componentType":5121,
			"count":1184,
			"type":"VEC4"
		},
		{
			"bufferView":30,
			"componentType":5126,
			"count":1184,
			"type":"VEC4"
		},
		{
			"bufferView":31,
			"componentType":5126,
			"count":1184,
			"max":[
				1.5261188745498657,
				2.994321346282959,
				0.3785591721534729
			],
			"min":[
				-1.5261187553405762,
				-0.0033061434514820576,
				-0.4981870651245117
			],
			"type":"VEC3"
		},
		{
			"bufferView":32,
			"componentType":5126,
			"count":1184,
			"type":"VEC3"
		},
		{
			"bufferView":33,
			"componentType":5126,
			"count":1184,
			"type":"VEC2"
		},
		{
			"bufferView":34,
			"componentType":5121,
			"count":1184,
			"type":"VEC4"
		},
		{
			"bufferView":35,
			"componentType":5126,
			"count":1184,
			"type":"VEC4"
		},
		{
			"bufferView":36,
			"componentType":5126,
			"count":240,
			"max":[
				0.9510578513145447,
				1,
				0.9999999403953552
			],
			"min":[
				-0.9510578513145447,
				-1,
				-0.9999999403953552
			],
			"type":"VEC3"
		},
		{
			"bufferView":37,
			"componentType":5126,
			"count":240,
			"type":"VEC3"
		},
		{
			"bufferView":38,
			"componentType":5126,
			"count":240,
			"type":"VEC2"
		},
		{
			"bufferView":39,
			"componentType":5123,
			"count":240,
			"type":"SCALAR"
		}
	],
	"bufferViews":[
		{
			"buffer":0,
			"byteLength":14208,
			"byteOffset":0,
			"target":34962
		},
		{
			"buffer":0,
			"byteLength":14208,
			"byteOffset":14208,
			"target":34962
		},
		{
			"buffer":0,
			"byteLength":9472,
			"byteOffset":28416,
			"target":34962
		},
		{
			"buffer":0,
			"byteLength":4736,
			"byteOffset":37888,
			"target":34962
		},
		{
			"buffer":0,
			"byteLength":18944,
			"byteOffset":42624,
			"target":34962
		},
		{
			"buffer":0,
			"byteLength":7452,
			"byteOffset":61568,
			"target":34963
		},
		{
			"buffer":0,
			"byteLength":2048,
			"byteOffset":69020
		},
		{
			"buffer":0,
			"byteLength":34716,
			"byteOffset":71068,
			"target":34962
		},
		{
			"buffer":0,
			"byteLength":34716,
			"byteOffset":105784,
			"target":34962
		},
		{
			"buffer":0,
			"byteLength":23144,
			"byteOffset":140500,
			"target":34962
		},
		{
			"buffer":0,
			"byteLength":15720,
			"byteOffset":163644,
			"target":34963
		},
		{
			"buffer":0,
			"byteLength":34716,
			"byteOffset":179364,
			"target":34962
		},
		{
			"buffer":0,
			"byteLength":34716,
			"byteOffset":214080,
			"target":34962
		},
		{
			"buffer":0,
			"byteLength":23144,
			"byteOffset":248796,
			"target":34962
		},
		{
			"buffer":0,
			"byteLength":288,
			"byteOffset":271940,
			"target":34962
		},
		{
			"buffer":0,
			"byteLength":288,
			"byteOffset":272228,
			"target":34962
		},
		{
			"buffer":0,
			"byteLength":192,
			"byteOffset":272516,
			"target":34962
		},
		{
			"buffer":0,
			"byteLength":144,
			"byteOffset":272708,
			"target":34963
		},
		{
			"buffer":0,
			"byteLength":288,
			"byteOffset":272852,
			"target":34962
		},
		{
			"buffer":0,
			"byteLength":288,
			"byteOffset":273140,
			"target":34962
		},
		{
			"buffer":0,
			"byteLength":192,
			"byteOffset":273428,
			"target":34962
		},
		{
			"buffer":0,
			"byteLength":144,
			"byteOffset":273620,
			"target":34963
		},
		{
			"buffer":0,
			"byteLength":1728,
			"byteOffset":273764,
			"target":34962
		},
		{
			"buffer":0,
			"byteLength":1728,
			"byteOffset":275492,
			"target":34962
		},
		{
			"buffer":0,
			"byteLength":1152,
			"byteOffset":277220,
			"target":34962
		},
		{
			"buffer":0,
			"byteLength":1080,
			"byteOffset":278372,
			"target":34963
		},
		{
			"buffer":0,
			"byteLength":14208,
			"byteOffset":279452,
			"target":34962
		},
		{
			"buffer":0,
			"byteLength":14208,
			"byteOffset":293660,
			"target":34962
		},
		{
			"buffer":0,
			"byteLength":9472,
			"byteOffset":307868,
			"target":34962
		},
		{
			"buffer":0,
			"byteLength":4736,
			"byteOffset":317340,
			"target":34962
		},
		{
			"buffer":0,
			"byteLength":18944,
			"byteOffset":322076,
			"target":34962
		},
		{
			"buffer":0,
			"byteLength":14208,
			"byteOffset":341020,
			"target":34962
		},
		{
			"buffer":0,
			"byteLength":14208,
			"byteOffset":355228,
			"target":34962
		},
		{
			"buffer":0,
			"byteLength":9472,
			"byteOffset":369436,
			"target":34962
		},
		{
			"buffer":0,
			"byteLength":4736,
			"byteOffset":378908,
			"target":34962
		},
		{
			"buffer":0,
			"byteLength":18944,
			"byteOffset":383644,
			"target":34962
		},
		{
			"buffer":0,
			"byteLength":2880,
			"byteOffset":402588,
			"target":34962
		},
		{
			"buffer":0,
			"byteLength":2880,
			"byteOffset":405468,
			"target":34962
		},
		{
			"buffer":0,
			"byteLength":1920,
			"byteOffset":408348,
			"target":34962
		},
		{
			"buffer":0,
			"byteLength":480,
			"byteOffset":410268,
			"target":34963
		}
	],
	"samplers":[
		{
			"magFilter":9729,
			"minFilter":9987
		}
	],
	"buffers":[
		{
			"byteLength":410748,
			"uri":"Wizard_Tintable.bin"
		}
	]
}
